<svg xmlns="http://www.w3.org/2000/svg" viewBox="0 0 360 185"><path d="M162.2 162.7c.6.5 1 1.1 1.4 1.7s.5 1.5.5 2.6c0 1.2-.2 2.4-.7 3.4s-1.2 2-2.2 2.7c-1 .7-2.1 1.3-3.5 1.7s-2.9.6-4.8.6c-2.2 0-4-.2-5.6-.5s-2.8-.7-3.8-1.1v-5.7h.7c1 .6 2.2 1.1 3.6 1.6s2.7.7 3.8.7c.7 0 1.4-.1 2.2-.2s1.5-.4 2-.7c.4-.3.8-.6 1-1.1s.4-1 .4-1.8-.2-1.4-.5-1.8-.8-.7-1.4-.9c-.6-.2-1.3-.3-2.1-.3h-3.6V159h1.5c.9 0 1.7 0 2.4-.1s1.3-.2 1.8-.4.9-.5 1.2-.9.4-.9.4-1.6c0-.5-.1-1-.4-1.3s-.6-.6-1-.8c-.5-.2-1-.4-1.6-.4s-1.2-.1-1.6-.1c-1.1 0-2.3.2-3.6.6s-2.5.9-3.7 1.6h-.7v-5.7c1-.4 2.3-.8 3.9-1.1s3.3-.5 5-.5c1.7 0 3.1.1 4.3.4s2.3.7 3.1 1.2c1 .6 1.7 1.3 2.1 2.1s.7 1.8.7 2.9c0 1.5-.5 2.8-1.4 3.9s-2.1 1.9-3.6 2.2v.2c.6.1 1.2.2 1.9.5s1.4.6 1.9 1zm28-.8c0 2.2-.2 4.2-.6 5.9s-1 3.2-1.9 4.3c-.9 1.1-2 2-3.3 2.6-1.4.6-3 .9-5 .9s-3.6-.3-5-.9c-1.4-.6-2.5-1.5-3.4-2.6-.9-1.1-1.5-2.6-1.9-4.3s-.6-3.7-.6-5.9c0-2.3.2-4.3.6-5.9s1-3.1 1.9-4.3c.9-1.1 2-2 3.4-2.6 1.4-.6 3-.9 5-.9s3.7.3 5 .9c1.4.6 2.5 1.5 3.3 2.6.9 1.1 1.5 2.6 1.9 4.2s.6 3.8.6 6zm-6.8 0c0-3.2-.3-5.4-.9-6.8-.6-1.3-1.7-2-3.1-2s-2.5.7-3.1 2c-.6 1.3-.9 3.6-.9 6.8 0 3.1.3 5.3.9 6.7s1.7 2.1 3.1 2.1 2.4-.7 3.1-2.1.9-3.6.9-6.7zm32.4 0c0 2.2-.2 4.2-.6 5.9s-1 3.2-1.9 4.3c-.9 1.1-2 2-3.3 2.6-1.4.6-3 .9-5 .9s-3.6-.3-5-.9c-1.4-.6-2.5-1.5-3.4-2.6-.9-1.1-1.5-2.6-1.9-4.3s-.6-3.7-.6-5.9c0-2.3.2-4.3.6-5.9s1-3.1 1.9-4.3c.9-1.1 2-2 3.4-2.6 1.4-.6 3-.9 5-.9s3.7.3 5 .9c1.4.6 2.5 1.5 3.3 2.6.9 1.1 1.5 2.6 1.9 4.2s.6 3.8.6 6zm-6.8 0c0-3.2-.3-5.4-.9-6.8-.6-1.3-1.7-2-3.1-2s-2.5.7-3.1 2c-.6 1.3-.9 3.6-.9 6.8 0 3.1.3 5.3.9 6.7s1.7 2.1 3.1 2.1 2.4-.7 3.1-2.1.9-3.6.9-6.7z"/><g fill="#004ea2"><circle cx="10.6" cy="175.6" r="4.4"/><circle cx="21.7" cy="175.6" r="4.4"/><circle cx="32.8" cy="175.6" r="4.4"/><circle cx="44" cy="175.6" r="4.4"/><circle cx="55.1" cy="175.6" r="4.4"/><circle cx="66.2" cy="175.6" r="4.4"/><circle cx="77.3" cy="175.6" r="4.4"/><circle cx="88.4" cy="175.6" r="4.4"/><circle cx="99.6" cy="175.6" r="4.4"/><circle cx="11.3" cy="164.4" r="4.4"/><circle cx="22.5" cy="163.7" r="4.4"/><circle cx="33.7" cy="163.6" r="4.4"/><circle cx="44.9" cy="163.6" r="4.4"/><circle cx="56.1" cy="163.6" r="4.4"/><circle cx="67.3" cy="163.6" r="4.4"/><circle cx="12.7" cy="153.4" r="4.4"/><circle cx="78.6" cy="163.6" r="4.4"/><circle cx="24.2" cy="151.9" r="4.4"/><circle cx="89.8" cy="163.5" r="4.4"/><circle cx="35.5" cy="151.9" r="4.4"/><circle cx="101.2" cy="163.5" r="4.4"/><circle cx="46.8" cy="151.8" r="4.4"/><circle cx="14.8" cy="142.5" r="4.4"/><circle cx="58.2" cy="151.8" r="4.4"/><circle cx="69.7" cy="151.8" r="4.4"/><circle cx="26.7" cy="140.2" r="4.4"/><circle cx="38.2" cy="140.2" r="4.4"/><circle cx="81.2" cy="151.8" r="4.4"/><circle cx="17.6" cy="131.7" r="4.4"/><circle cx="49.8" cy="140.2" r="4.4"/><circle cx="92.8" cy="151.8" r="4.4"/><circle cx="61.5" cy="140.3" r="4.4"/><circle cx="30.2" cy="128.8" r="4.4"/><circle cx="41.9" cy="128.9" r="4.4"/><circle cx="21.1" cy="121.1" r="4.4"/><circle cx="73.2" cy="140.3" r="4.4"/><circle cx="104.6" cy="151.8" r="4.4"/><circle cx="53.8" cy="129" r="4.4"/><circle cx="85.2" cy="140.4" r="4.4"/><circle cx="34.4" cy="117.7" r="4.4"/><circle cx="65.8" cy="129.1" r="4.4"/><circle cx="25.3" cy="110.8" r="4.4"/><circle cx="46.5" cy="117.9" r="4.4"/><circle cx="97.3" cy="140.5" r="4.4"/><circle cx="78" cy="129.3" r="4.4"/><circle cx="58.8" cy="118.1" r="4.4"/><circle cx="39.5" cy="106.9" r="4.4"/><circle cx="30.2" cy="100.8" r="4.4"/><circle cx="109.7" cy="140.7" r="4.4"/><circle cx="90.5" cy="129.5" r="4.4"/><circle cx="71.2" cy="118.4" r="4.4"/><circle cx="52" cy="107.3" r="4.4"/><circle cx="35.7" cy="91.1" r="4.4"/><circle cx="45.4" cy="96.6" r="4.4"/><circle cx="64.7" cy="107.7" r="4.4"/><circle cx="83.9" cy="118.8" r="4.4"/><circle cx="103.2" cy="129.9" r="4.4"/><circle cx="58.3" cy="97.1" r="4.4"/><circle cx="77.6" cy="108.3" r="4.4"/><circle cx="41.9" cy="81.9" r="4.4"/><circle cx="52.1" cy="86.7" r="4.4"/><circle cx="97" cy="119.4" r="4.4"/><circle cx="71.5" cy="97.8" r="4.4"/><circle cx="116.4" cy="130.5" r="4.4"/><circle cx="90.9" cy="109" r="4.4"/><circle cx="65.4" cy="87.6" r="4.4"/><circle cx="48.6" cy="73" r="4.4"/><circle cx="59.5" cy="77.3" r="4.4"/><circle cx="85" cy="98.8" r="4.4"/><circle cx="110.5" cy="120.2" r="4.4"/><circle cx="79.1" cy="88.6" r="4.4"/><circle cx="104.7" cy="110.1" r="4.4"/><circle cx="55.9" cy="64.6" r="4.4"/><circle cx="73.3" cy="78.6" r="4.4"/><circle cx="98.9" cy="100" r="4.4"/><circle cx="67.5" cy="68.6" r="4.4"/><circle cx="93.2" cy="90.1" r="4.4"/><circle cx="124.6" cy="121.5" r="4.4"/><circle cx="63.8" cy="56.7" r="4.4"/><circle cx="87.5" cy="80.1" r="4.4"/><circle cx="81.8" cy="70.3" r="4.4"/><circle cx="119" cy="111.6" r="4.4"/><circle cx="76.2" cy="60.4" r="4.4"/><circle cx="113.4" cy="101.7" r="4.4"/><circle cx="72.1" cy="49.3" r="4.4"/><circle cx="107.8" cy="91.9" r="4.4"/><circle cx="102.2" cy="82.2" r="4.4"/><circle cx="96.6" cy="72.4" r="4.4"/><circle cx="91.1" cy="62.7" r="4.4"/><circle cx="85.5" cy="53" r="4.4"/><circle cx="80.9" cy="42.5" r="4.4"/><circle cx="134.1" cy="113.8" r="4.4"/><circle cx="128.6" cy="104.1" r="4.4"/><circle cx="123" cy="94.5" r="4.4"/><circle cx="117.5" cy="84.8" r="4.4"/><circle cx="111.9" cy="75.2" r="4.4"/><circle cx="106.4" cy="65.5" r="4.4"/><circle cx="100.8" cy="55.9" r="4.4"/><circle cx="95.3" cy="46.2" r="4.4"/><circle cx="90.2" cy="36.3" r="4.4"/><circle cx="99.8" cy="30.7" r="4.4"/><circle cx="105.6" cy="40.2" r="4.4"/><circle cx="111.2" cy="49.9" r="4.4"/><circle cx="116.7" cy="59.5" r="4.4"/><circle cx="122.3" cy="69.1" r="4.4"/><circle cx="127.9" cy="78.7" r="4.4"/><circle cx="133.4" cy="88.4" r="4.4"/><circle cx="139" cy="98" r="4.4"/><circle cx="144.6" cy="107.6" r="4.4"/><circle cx="109.8" cy="25.8" r="4.4"/><circle cx="116.3" cy="35" r="4.4"/><circle cx="121.9" cy="44.7" r="4.4"/><circle cx="127.6" cy="54.4" r="4.4"/><circle cx="133.2" cy="64.1" r="4.4"/><circle cx="138.8" cy="73.8" r="4.4"/><circle cx="120.1" cy="21.5" r="4.4"/><circle cx="144.5" cy="83.5" r="4.4"/><circle cx="127.4" cy="30.7" r="4.4"/><circle cx="150.2" cy="93.3" r="4.4"/><circle cx="133.1" cy="40.5" r="4.4"/><circle cx="138.8" cy="50.3" r="4.4"/><circle cx="155.9" cy="103.1" r="4.4"/><circle cx="130.6" cy="17.9" r="4.4"/><circle cx="144.5" cy="60.1" r="4.4"/><circle cx="150.3" cy="70.1" r="4.4"/><circle cx="138.8" cy="27.1" r="4.4"/><circle cx="144.5" cy="37.1" r="4.4"/><circle cx="156.1" cy="80.1" r="4.4"/><circle cx="141.4" cy="15" r="4.4"/><circle cx="150.3" cy="47.2" r="4.4"/><circle cx="161.9" cy="90.1" r="4.4"/><circle cx="156.2" cy="57.3" r="4.4"/><circle cx="150.4" cy="24.5" r="4.4"/><circle cx="152.3" cy="12.8" r="4.4"/><circle cx="156.2" cy="34.7" r="4.4"/><circle cx="162" cy="67.5" r="4.4"/><circle cx="167.8" cy="100.4" r="4.4"/><circle cx="162.1" cy="45.1" r="4.4"/><circle cx="167.9" cy="77.9" r="4.4"/><circle cx="162.2" cy="22.7" r="4.4"/><circle cx="163.3" cy="11.4" r="4.4"/><circle cx="168" cy="55.6" r="4.4"/><circle cx="168.1" cy="33.3" r="4.4"/><circle cx="173.9" cy="88.5" r="4.4"/><circle cx="174" cy="66.3" r="4.4"/><circle cx="174" cy="44" r="4.4"/><circle cx="174" cy="21.8" r="4.4"/><circle cx="174.4" cy="10.6" r="4.4"/><circle cx="180" cy="32.8" r="4.4"/><circle cx="180" cy="55" r="4.4"/><circle cx="180" cy="77.2" r="4.4"/><circle cx="180" cy="99.4" r="4.4"/><circle cx="185.6" cy="10.6" r="4.4"/><circle cx="186" cy="21.8" r="4.4"/><circle cx="186" cy="44" r="4.4"/><circle cx="186" cy="66.3" r="4.4"/><circle cx="186.1" cy="88.5" r="4.4"/><circle cx="191.9" cy="33.3" r="4.4"/><circle cx="192" cy="55.6" r="4.4"/><circle cx="196.7" cy="11.4" r="4.4"/><circle cx="197.8" cy="22.7" r="4.4"/><circle cx="192.1" cy="77.9" r="4.4"/><circle cx="197.9" cy="45.1" r="4.4"/></g><g fill="#006cb7"><circle cx="192.2" cy="100.4" r="4.4"/><circle cx="198" cy="67.5" r="4.4"/><circle cx="203.8" cy="34.7" r="4.4"/><circle cx="207.7" cy="12.8" r="4.4"/><circle cx="209.6" cy="24.5" r="4.4"/><circle cx="203.8" cy="57.3" r="4.4"/><circle cx="198.1" cy="90.1" r="4.4"/><circle cx="209.7" cy="47.2" r="4.4"/><circle cx="218.6" cy="15" r="4.4"/><circle cx="203.9" cy="80.1" r="4.4"/><circle cx="215.5" cy="37.1" r="4.4"/><circle cx="221.2" cy="27.1" r="4.4"/><circle cx="209.7" cy="70.1" r="4.4"/><circle cx="215.5" cy="60.1" r="4.4"/><circle cx="229.4" cy="17.9" r="4.4"/><circle cx="204.1" cy="103.1" r="4.4"/><circle cx="221.2" cy="50.3" r="4.4"/></g><circle cx="226.9" cy="40.5" r="4.4" fill="#003e98"/><circle cx="209.8" cy="93.3" r="4.4" fill="#fc0"/><circle cx="232.6" cy="30.7" r="4.4" fill="#003e98"/><circle cx="215.5" cy="83.5" r="4.4" fill="#fc0"/><circle cx="239.9" cy="21.5" r="4.4" fill="#003e98"/><g fill="#fc0"><circle cx="221.2" cy="73.8" r="4.4"/><circle cx="226.8" cy="64.1" r="4.4"/><circle cx="232.4" cy="54.4" r="4.4"/><circle cx="238.1" cy="44.7" r="4.4"/></g><g fill="gray"><circle cx="243.7" cy="35" r="4.4"/><circle cx="250.2" cy="25.8" r="4.4"/><circle cx="215.4" cy="107.6" r="4.4"/><circle cx="221" cy="98" r="4.4"/><circle cx="226.6" cy="88.4" r="4.4"/></g><g fill="#ea5504"><circle cx="232.1" cy="78.7" r="4.4"/><circle cx="237.7" cy="69.1" r="4.4"/><circle cx="243.3" cy="59.5" r="4.4"/></g><g fill="#ef426f"><circle cx="248.8" cy="49.9" r="4.4"/><circle cx="254.4" cy="40.2" r="4.4"/><circle cx="260.2" cy="30.7" r="4.4"/><circle cx="269.8" cy="36.3" r="4.4"/><circle cx="264.7" cy="46.2" r="4.4"/><circle cx="259.1" cy="55.9" r="4.4"/><circle cx="253.6" cy="65.5" r="4.4"/><circle cx="248.1" cy="75.2" r="4.4"/><circle cx="242.5" cy="84.8" r="4.4"/><circle cx="237" cy="94.5" r="4.4"/><circle cx="231.4" cy="104.1" r="4.4"/><circle cx="225.9" cy="113.8" r="4.4"/><circle cx="279.1" cy="42.5" r="4.4"/><circle cx="274.5" cy="53" r="4.4"/><circle cx="268.9" cy="62.7" r="4.4"/><circle cx="263.4" cy="72.4" r="4.4"/><circle cx="257.8" cy="82.2" r="4.4"/><circle cx="252.2" cy="91.9" r="4.4" transform="rotate(-80.781 252.202 91.916)"/><circle cx="287.9" cy="49.3" r="4.4"/></g><g fill="#ef426f"><circle cx="246.6" cy="101.7" r="4.4"/><circle cx="283.8" cy="60.4" r="4.4"/><circle cx="241" cy="111.6" r="4.4"/><circle cx="278.1" cy="70.3" r="4.4"/><circle cx="272.5" cy="80.1" r="4.4"/><circle cx="296.2" cy="56.7" r="4.4"/><circle cx="235.4" cy="121.5" r="4.4"/><circle cx="266.8" cy="90.1" r="4.4"/><circle cx="292.5" cy="68.6" r="4.4"/><circle cx="261.1" cy="100" r="4.4"/><circle cx="286.7" cy="78.6" r="4.4"/><circle cx="304.1" cy="64.6" r="4.4"/><circle cx="255.3" cy="110.1" r="4.4"/><circle cx="280.9" cy="88.6" r="4.4"/><circle cx="249.5" cy="120.2" r="4.4"/><circle cx="275" cy="98.8" r="4.4"/><circle cx="300.5" cy="77.3" r="4.4"/><circle cx="311.4" cy="73" r="4.4"/><circle cx="294.6" cy="87.6" r="4.4"/><circle cx="269.1" cy="109" r="4.4"/><circle cx="243.6" cy="130.5" r="4.4"/><circle cx="288.5" cy="97.8" r="4.4"/><circle cx="263" cy="119.4" r="4.4"/><circle cx="307.9" cy="86.7" r="4.4"/><circle cx="318.1" cy="81.9" r="4.4"/><circle cx="282.4" cy="108.3" r="4.4"/><circle cx="301.7" cy="97.1" r="4.4"/><circle cx="256.8" cy="129.9" r="4.4"/><circle cx="276" cy="118.8" r="4.4"/><circle cx="295.3" cy="107.7" r="4.4"/><circle cx="314.6" cy="96.6" r="4.4"/><circle cx="324.3" cy="91.1" r="4.4"/><circle cx="308" cy="107.3" r="4.4"/><circle cx="288.8" cy="118.4" r="4.4"/><circle cx="269.5" cy="129.5" r="4.4"/><circle cx="250.3" cy="140.7" r="4.4"/><circle cx="329.8" cy="100.8" r="4.4"/><circle cx="320.5" cy="106.9" r="4.4"/><circle cx="301.2" cy="118.1" r="4.4"/><circle cx="282" cy="129.3" r="4.4"/><circle cx="262.7" cy="140.5" r="4.4"/><circle cx="313.5" cy="117.9" r="4.4"/><circle cx="334.7" cy="110.8" r="4.4"/><circle cx="294.2" cy="129.1" r="4.4"/><circle cx="325.6" cy="117.7" r="4.4"/><circle cx="274.8" cy="140.4" r="4.4"/><circle cx="306.2" cy="129" r="4.4"/><circle cx="255.4" cy="151.8" r="4.4"/><circle cx="286.8" cy="140.3" r="4.4"/><circle cx="338.9" cy="121.1" r="4.4"/><circle cx="318.1" cy="128.9" r="4.4"/><circle cx="329.8" cy="128.8" r="4.4"/><circle cx="298.5" cy="140.3" r="4.4"/><circle cx="267.2" cy="151.8" r="4.4"/><circle cx="310.2" cy="140.2" r="4.4"/><circle cx="342.4" cy="131.7" r="4.4"/><circle cx="278.8" cy="151.8" r="4.4"/><circle cx="321.8" cy="140.2" r="4.4"/><circle cx="333.3" cy="140.2" r="4.4"/><circle cx="290.3" cy="151.8" r="4.4"/><circle cx="301.8" cy="151.8" r="4.4"/><circle cx="345.2" cy="142.5" r="4.4"/><circle cx="313.2" cy="151.8" r="4.4"/><circle cx="258.8" cy="163.5" r="4.4"/><circle cx="324.5" cy="151.9" r="4.4"/><circle cx="270.2" cy="163.5" r="4.4"/><circle cx="335.8" cy="151.9" r="4.4"/><circle cx="281.5" cy="163.6" r="4.4"/><circle cx="347.3" cy="153.4" r="4.4"/><circle cx="292.7" cy="163.6" r="4.4"/><circle cx="303.9" cy="163.6" r="4.4"/><circle cx="315.1" cy="163.6" r="4.4"/><circle cx="326.3" cy="163.6" r="4.4"/><circle cx="337.5" cy="163.7" r="4.4"/><circle cx="348.7" cy="164.4" r="4.4"/><circle cx="260.4" cy="175.6" r="4.4"/><circle cx="271.6" cy="175.6" r="4.4"/><circle cx="282.7" cy="175.6" r="4.4"/><circle cx="293.8" cy="175.6" r="4.4"/><circle cx="304.9" cy="175.6" r="4.4"/><circle cx="316" cy="175.6" r="4.4"/><circle cx="327.2" cy="175.6" r="4.4"/><circle cx="338.3" cy="175.6" r="4.4"/><circle cx="349.4" cy="175.6" r="4.4"/></g></svg>